<?xml version="1.0" encoding="UTF-8"?>
<svg version="1.1" xmlns="http://www.w3.org/2000/svg" width="1024" height="1024">
<path d="M0 0 C1.13467209 -0.00250763 1.13467209 -0.00250763 2.29226685 -0.00506592 C13.66775314 -0.00657159 24.63625695 0.62203696 35.81835938 2.86962891 C38.6779754 3.43273328 41.55925422 3.85592548 44.4375 4.3125 C46.94921875 4.72265625 46.94921875 4.72265625 48.75 5.25 C49.08 5.91 49.41 6.57 49.75 7.25 C51.74684972 7.79656801 51.74684972 7.79656801 54.15625 8.125 C59.84560498 9.16750965 64.92526733 11.02609032 70.25 13.25 C71.20197266 13.64517822 72.15394531 14.04035645 73.13476562 14.44750977 C110.53745505 30.33866242 141.41675777 58.14512446 161.75 93.25 C162.41128906 94.35988281 163.07257813 95.46976562 163.75390625 96.61328125 C168.59086538 104.77259615 168.59086538 104.77259615 169.75 108.25 C170.30032415 109.63560014 170.8585265 111.01808143 171.421875 112.3984375 C181.50435359 137.57775389 185.99647287 162.88522965 185.8125 190 C185.80798828 191.28132812 185.80347656 192.56265625 185.79882812 193.8828125 C185.7871772 197.00525931 185.77082025 200.12760318 185.75 203.25 C185.09 203.25 184.43 203.25 183.75 203.25 C183.73582031 203.94480469 183.72164062 204.63960937 183.70703125 205.35546875 C182.25462884 236.32696869 168.79972071 267.43163403 150.75 292.25 C150.35296875 292.8078418 149.9559375 293.36568359 149.546875 293.94042969 C121.07018881 333.62749964 77.56145295 358.14603427 29.84277344 366.0546875 C22.82426035 367.15319584 15.85757102 368.03714306 8.75 368.25 C7.63625 368.28996094 6.5225 368.32992188 5.375 368.37109375 C-34.0146277 369.09267098 -73.37850763 357.68492086 -105.25 334.25 C-106.29414063 333.50105469 -107.33828125 332.75210937 -108.4140625 331.98046875 C-130.59520604 315.61351749 -147.07654193 294.96477061 -160.20361328 270.96728516 C-161.25829562 269.08443459 -161.25829562 269.08443459 -163.25 267.25 C-163.58 266.59 -163.91 265.93 -164.25 265.25 C-164.91 264.92 -165.57 264.59 -166.25 264.25 C-165.59 263.92 -164.93 263.59 -164.25 263.25 C-165.20583968 261.31126858 -166.16476192 259.3740567 -167.125 257.4375 C-167.65867187 256.35855469 -168.19234375 255.27960938 -168.7421875 254.16796875 C-170.22221139 251.17161735 -170.22221139 251.17161735 -172.25 248.25 C-171.59 248.25 -170.93 248.25 -170.25 248.25 C-170.56453125 247.37601563 -170.8790625 246.50203125 -171.203125 245.6015625 C-174.67719429 235.61884533 -177.28607576 225.6354577 -179.25 215.25 C-179.47816406 214.04730469 -179.70632813 212.84460938 -179.94140625 211.60546875 C-183.09892762 191.22510357 -182.56429842 169.4114531 -178.25 149.25 C-178.07839355 148.43950195 -177.90678711 147.62900391 -177.72998047 146.79394531 C-173.85933058 129.04914288 -168.4444103 111.97025824 -159.25 96.25 C-158.94545898 95.62343506 -158.64091797 94.99687012 -158.32714844 94.35131836 C-157.19762198 92.14782013 -155.9197597 90.14992477 -154.53515625 88.09765625 C-154.01373047 87.32099609 -153.49230469 86.54433594 -152.95507812 85.74414062 C-152.41302734 84.94169922 -151.87097656 84.13925781 -151.3125 83.3125 C-150.23979536 81.72078617 -149.16815031 80.12835764 -148.09765625 78.53515625 C-147.59379395 77.78637207 -147.08993164 77.03758789 -146.57080078 76.26611328 C-145.55230179 74.71144329 -144.60250027 73.11162765 -143.68359375 71.49609375 C-141.87552097 68.66328217 -139.66508295 66.58351627 -137.25 64.25 C-135.88168686 62.75260072 -134.51369481 61.25486577 -133.15576172 59.74804688 C-120.2104106 45.43798797 -105.43722658 32.29017621 -88.25 23.25 C-87.59 23.25 -86.93 23.25 -86.25 23.25 C-85.92 22.59 -85.59 21.93 -85.25 21.25 C-83.13820561 20.14094879 -80.98489529 19.110073 -78.8125 18.125 C-77.63816406 17.58617187 -76.46382813 17.04734375 -75.25390625 16.4921875 C-72.25 15.25 -72.25 15.25 -70.25 15.25 C-69.92 14.59 -69.59 13.93 -69.25 13.25 C-67.52734375 12.57421875 -67.52734375 12.57421875 -65.1875 11.9375 C-61.35501674 10.86266758 -57.56945081 9.70408866 -53.78930664 8.45727539 C-36.07721004 2.68011754 -18.60510627 0.02164057 0 0 Z " fill="#FA9833" transform="translate(510.25,330.75)"/>
<path d="M0 0 C7.48839229 4.01732899 12.5877907 9.40904224 15.76171875 17.31640625 C17.95748505 25.63273852 17.93694031 35.75112603 13.5703125 43.37890625 C9.79021797 48.48049724 6.12269828 52.59841081 0.4536438 55.50209045 C-3.02449785 57.66397991 -3.33368899 57.97277801 -4.33547974 62.21092224 C-4.33375711 63.73032399 -4.28809656 65.25006935 -4.20751953 66.76733398 C-4.19595322 67.60079346 -4.1843869 68.43425293 -4.17247009 69.29296875 C-4.1431767 71.10152709 -4.09592887 72.90986396 -4.03281021 74.71755791 C-3.93616755 77.6022728 -3.89537532 80.48298587 -3.86984253 83.36915588 C-3.78807571 91.57110756 -3.61406666 99.76987689 -3.38574219 107.96899414 C-2.22301539 151.8622189 -2.22301539 151.8622189 -17.04489136 167.85536194 C-20.00153212 171.10824016 -19.6009263 174.41664279 -19.63500977 178.58251953 C-19.64985916 179.69486465 -19.64985916 179.69486465 -19.66500854 180.8296814 C-19.69665113 183.28616113 -19.72139181 185.74266022 -19.74609375 188.19921875 C-19.7666609 189.90030425 -19.78765731 191.60138461 -19.80906677 193.30245972 C-19.86431214 197.78391361 -19.91371053 202.26541381 -19.96191406 206.74694824 C-20.0121111 211.31832002 -20.06780654 215.88962438 -20.12304688 220.4609375 C-20.23065859 229.43353619 -20.33209686 238.40619336 -20.4296875 247.37890625 C-23.40891343 247.40574612 -26.38790045 247.42566662 -29.3671875 247.44140625 C-30.21732422 247.44978516 -31.06746094 247.45816406 -31.94335938 247.46679688 C-32.75224609 247.47001953 -33.56113281 247.47324219 -34.39453125 247.4765625 C-35.143396 247.48179932 -35.89226074 247.48703613 -36.66381836 247.49243164 C-38.4296875 247.37890625 -38.4296875 247.37890625 -39.4296875 246.37890625 C-39.60449363 243.95128858 -39.71431732 241.55034523 -39.78125 239.11889648 C-39.81761063 237.9768148 -39.81761063 237.9768148 -39.85470581 236.81166077 C-40.068263 229.69787707 -40.19157008 222.5820788 -40.28900146 215.46584988 C-40.35543114 210.69782843 -40.44966978 205.93436431 -40.61621094 201.16870117 C-41.85024784 164.97410854 -41.85024784 164.97410854 -31.92578125 152.3828125 C-20.06868843 137.33801289 -22.74314013 118.90828212 -23.39971924 100.71887207 C-23.55557485 95.9320987 -23.62217316 91.14406921 -23.69726562 86.35546875 C-23.85622559 77.02673599 -24.11080612 67.70345098 -24.4296875 58.37890625 C-24.9767334 58.10973389 -25.5237793 57.84056152 -26.08740234 57.56323242 C-26.80621582 57.20720947 -27.5250293 56.85118652 -28.265625 56.484375 C-28.9776709 56.13270264 -29.6897168 55.78103027 -30.42333984 55.41870117 C-37.33991546 51.83416776 -41.70346906 45.66794046 -44.57421875 38.53515625 C-47.20977493 28.81127776 -46.18674412 19.60813852 -41.19921875 10.90625 C-31.84379026 -2.45569753 -14.8094461 -6.19578867 0 0 Z " fill="#FEFDFB" transform="translate(579.4296875,388.62109375)"/>
<path d="M0 0 C7.34835049 4.25745679 12.60808381 10.02998072 15.78125 17.94921875 C18.13615595 27.10251389 16.90143256 36.4825274 12.21875 44.6171875 C7.91449639 50.95400531 1.96987105 55.76623388 -5.5625 57.5 C-5.8277034 67.24613216 -5.9977608 76.98825323 -6.05215549 86.73785305 C-6.08029416 91.26737066 -6.13904787 95.79183646 -6.2722168 100.31958008 C-8.05605643 121.26355816 -8.05605643 121.26355816 -0.7109375 139.69384766 C1.56173594 141.71528387 3.9163225 143.53009623 6.35066223 145.35179138 C11.19792943 149.26759503 13.00427578 151.99977651 13.8503418 158.26342773 C14.30445649 165.5079005 14.06302494 172.71944199 13.66308594 179.95916748 C13.49378219 183.39424608 13.43093451 186.83134985 13.35546875 190.26953125 C12.83366539 210.10383461 12.83366539 210.10383461 11.4375 211.5 C8.7601862 211.59981214 6.11445825 211.63879875 3.4375 211.625 C2.68726563 211.62886719 1.93703125 211.63273438 1.1640625 211.63671875 C-4.43588947 211.62661053 -4.43588947 211.62661053 -5.5625 210.5 C-5.62775742 209.02240088 -5.62448687 207.54169809 -5.59326172 206.06298828 C-5.57770233 205.11755157 -5.56214294 204.17211487 -5.54611206 203.19802856 C-5.52831696 202.16588226 -5.51052185 201.13373596 -5.4921875 200.0703125 C-5.48127515 197.89063831 -5.47356902 195.71094617 -5.46875 193.53125 C-5.46092698 190.08912045 -5.43809349 186.6512715 -5.36035156 183.20996094 C-4.41903688 168.7300579 -4.41903688 168.7300579 -10.28323364 156.19332886 C-12.58005669 154.12771398 -15.08931732 152.34824087 -17.5625 150.5 C-21.07811157 147.2769488 -23.86502863 144.37762173 -24.25469971 139.47166443 C-24.25930351 137.98015801 -24.23152083 136.48831057 -24.17675781 134.99780273 C-24.17132462 134.17736481 -24.16589142 133.35692688 -24.16029358 132.5116272 C-24.14534179 130.74146975 -24.11695113 128.97138434 -24.07642365 127.20162773 C-24.01482174 124.39702312 -23.99443244 121.59480352 -23.98529053 118.78956604 C-23.95215183 110.82015856 -23.84640725 102.85230032 -23.71044922 94.8840332 C-23.62995382 89.99976405 -23.59807423 85.11706391 -23.5951767 80.23216438 C-23.58386252 78.375251 -23.55344679 76.51835014 -23.50339508 74.66207695 C-22.80341644 64.70828283 -22.80341644 64.70828283 -26.71911621 56.12820435 C-29.30929229 54.49354128 -29.30929229 54.49354128 -32.03118896 53.50697327 C-37.27890171 51.41939637 -40.34675746 46.84129647 -42.87890625 41.96484375 C-46.35821211 33.53934697 -47.07379802 24.9968684 -44.0625 16.3125 C-40.14344359 7.74301398 -34.22185076 2.02244777 -25.5625 -1.5 C-17.48222761 -4.19342413 -7.66075612 -3.57825191 0 0 Z " fill="#FEFDFC" transform="translate(470.5625,425.5)"/>
<path d="M0 0 C4.02762816 2.72929395 7.43809967 5.31429901 9 10 C9.23946099 13.03921097 9.41996151 16.05713295 9.55078125 19.1015625 C9.59262039 20.05825836 9.63445953 21.01495422 9.67756653 22.00064087 C10.18556448 34.99212037 10.18720544 47.99183061 10.18530273 60.99121094 C10.18519967 64.68020886 10.19904929 68.36902053 10.21607494 72.05797386 C10.22721869 74.94059102 10.22922151 77.82316262 10.22869301 80.7057991 C10.23042265 82.71976401 10.2412089 84.73371473 10.25224304 86.74765015 C10.21310886 102.38966647 10.21310886 102.38966647 5.5625 107.875 C1.21753752 111.47813962 -2.30952146 113.22643773 -8 113 C-12.98797537 111.6998556 -16.22594392 109.9482187 -19.5 105.9375 C-21.6369868 101.75256751 -22.14099531 98.72122656 -22.22119141 94.07348633 C-22.24436432 92.84982864 -22.26753723 91.62617096 -22.29141235 90.36543274 C-22.31176675 89.02097015 -22.3318079 87.67650279 -22.3515625 86.33203125 C-22.37473338 84.93649441 -22.39812397 83.5409612 -22.42172241 82.14543152 C-22.47026303 79.2040102 -22.51512247 76.26255955 -22.55761719 73.32104492 C-22.60083114 70.35283145 -22.64922239 67.38478653 -22.703125 64.41674805 C-22.96391258 50.03019323 -23.1824713 35.6465769 -22.7109375 21.26171875 C-22.68705963 20.29748489 -22.66318176 19.33325104 -22.63858032 18.33979797 C-22.37025392 11.98420796 -21.42173078 7.35627859 -16.6875 2.75 C-11.38404625 -0.70341174 -6.14356754 -2.18514227 0 0 Z " fill="#FA9833" transform="translate(519,188)"/>
<path d="M0 0 C4.23978982 2.57596792 7.74797484 6.76548093 9.9609375 11.19140625 C10.6497591 18.63293795 10.57466894 24.16792354 5.9609375 30.19140625 C2.67061492 33.19140625 2.67061492 33.19140625 -0.0390625 33.19140625 C-0.03814071 33.77800994 -0.03721891 34.36461363 -0.03626919 34.96899319 C-0.01421317 49.22294413 0.00234943 63.47689253 0.01274967 77.7308569 C0.01791244 84.62388152 0.02495478 91.51689478 0.03637695 98.40991211 C0.0473845 105.0558679 0.05321372 111.70181494 0.05581474 118.34778023 C0.05766951 120.88963571 0.0612911 123.43149051 0.06666756 125.97334099 C0.07387417 129.51992087 0.0749286 133.06645115 0.07446289 136.61303711 C0.07805817 137.67542603 0.08165344 138.73781494 0.08535767 139.83239746 C0.083983 140.79298569 0.08260834 141.75357391 0.08119202 142.74327087 C0.08211381 143.58302428 0.0830356 144.42277769 0.08398533 145.28797817 C-0.0390625 147.19140625 -0.0390625 147.19140625 -1.0390625 148.19140625 C-3.7163763 148.29121839 -6.36210425 148.330205 -9.0390625 148.31640625 C-10.16441406 148.32220703 -10.16441406 148.32220703 -11.3125 148.328125 C-16.91245197 148.31801678 -16.91245197 148.31801678 -18.0390625 147.19140625 C-18.13474826 145.71124231 -18.16094518 144.22652352 -18.15931702 142.74327087 C-18.16137901 141.30238853 -18.16137901 141.30238853 -18.16348267 139.83239746 C-18.15988739 138.77000854 -18.15629211 137.70761963 -18.15258789 136.61303711 C-18.15280693 134.9449575 -18.15280693 134.9449575 -18.1530304 133.24317932 C-18.15233071 129.54751674 -18.1445357 125.85190384 -18.13671875 122.15625 C-18.13485477 119.60177132 -18.13343077 117.04729228 -18.13243103 114.49281311 C-18.12899594 108.44378915 -18.12110514 102.3947867 -18.11108154 96.34577137 C-18.09991933 89.46075471 -18.09440968 82.57573721 -18.08938611 75.69071376 C-18.0789225 61.52426795 -18.06132373 47.35783808 -18.0390625 33.19140625 C-19.20888672 32.76794922 -19.20888672 32.76794922 -20.40234375 32.3359375 C-24.46042894 30.57442793 -26.22929801 27.68947056 -28.2890625 23.87890625 C-30.0590152 17.53657575 -29.46130667 12.68605213 -26.30859375 7.015625 C-20.03629881 -1.99718034 -9.87564082 -4.04003488 0 0 Z " fill="#FEFDFC" transform="translate(521.0390625,488.80859375)"/>
<path d="M0 0 C2.30062942 0.99514275 4.6014189 1.98991553 6.90234375 2.984375 C8.14182633 3.52394613 9.38124528 4.06366343 10.62060547 4.60351562 C17.025511 7.38732666 23.45905525 10.10422273 29.88943481 12.82852173 C32.01621698 13.7303739 34.14191112 14.63474457 36.26733398 15.53979492 C37.60524293 16.10870953 38.9432133 16.67747968 40.28125 17.24609375 C40.91788574 17.51696304 41.55452148 17.78783234 42.21044922 18.06690979 C46.65084829 19.94821112 51.12102498 21.73432611 55.63305664 23.4362793 C60.80107924 25.78324034 63.60692913 30.16626088 65.5625 35.3125 C66.12457435 40.55852726 65.44687792 43.8897872 62.5625 48.3125 C58.80507763 52.0298432 55.51449289 54.48009674 50.1875 54.875 C44.38488138 54.76009666 39.90976881 53.12272011 34.640625 50.91796875 C33.34461868 50.38716705 33.34461868 50.38716705 32.02243042 49.84564209 C22.21120634 45.80368914 12.46076498 41.61511288 2.72998047 37.38378906 C-0.35567771 36.04374878 -3.44532718 34.71320281 -6.53515625 33.3828125 C-8.52108087 32.52140378 -10.5067672 31.65944545 -12.4921875 30.796875 C-13.40467255 30.40514099 -14.31715759 30.01340698 -15.2572937 29.60980225 C-22.52187343 26.43312452 -28.62418166 23.65666865 -32.4375 16.3125 C-34.15493107 10.53675579 -33.32286516 6.67103531 -30.4375 1.3125 C-29.8496875 0.19875 -29.8496875 0.19875 -29.25 -0.9375 C-20.47034409 -9.41440916 -9.51952494 -4.2081295 0 0 Z " fill="#FA9832" transform="translate(252.4375,386.6875)"/>
<path d="M0 0 C4.59757729 2.74677017 7.24371749 6.7348889 10.25390625 11.0703125 C11.48268144 12.7893424 12.71185947 14.5080844 13.94140625 16.2265625 C14.56273437 17.10441406 15.1840625 17.98226563 15.82421875 18.88671875 C18.74616235 22.98844292 21.75345015 27.02589085 24.75390625 31.0703125 C29.42622111 37.40526545 34.07318313 43.75831669 38.69140625 50.1328125 C39.20711182 50.84252197 39.72281738 51.55223145 40.25415039 52.28344727 C51.80287198 68.26892336 51.80287198 68.26892336 51.69140625 73.5078125 C50.54895377 79.33785348 47.98414614 82.69764684 43.41015625 86.37890625 C39.60379233 88.87899528 36.11709829 88.87057414 31.69140625 88.5078125 C23.65869475 86.00582039 19.87471477 80.15794476 15.16308594 73.55761719 C13.56246888 71.32822422 11.93099524 69.12391732 10.29296875 66.921875 C3.76537479 58.13905083 -2.67051767 49.29334963 -8.98876953 40.35888672 C-10.49706353 38.24348067 -12.02565783 36.14343141 -13.5546875 34.04296875 C-14.66029214 32.5105147 -15.76576272 30.97796392 -16.87109375 29.4453125 C-17.39654785 28.73036621 -17.92200195 28.01541992 -18.46337891 27.27880859 C-20.99883968 23.74226493 -22.9511151 20.98065512 -23.30859375 16.5078125 C-23.96859375 16.5078125 -24.62859375 16.5078125 -25.30859375 16.5078125 C-23.82031282 10.27639236 -22.64602108 5.51088299 -17.30859375 1.5078125 C-11.24204011 -1.75015149 -6.41903544 -2.89500772 0 0 Z " fill="#FA9933" transform="translate(347.30859375,251.4921875)"/>
<path d="M0 0 C0.99767678 -0.00424107 0.99767678 -0.00424107 2.01550865 -0.00856781 C5.53483848 -0.02349213 9.05412803 -0.03276446 12.57348633 -0.03710938 C16.18097379 -0.0425871 19.78808255 -0.06661949 23.39545155 -0.09508133 C26.19497207 -0.11383406 28.99440357 -0.11891995 31.79398155 -0.12044525 C33.76242339 -0.124887 35.73081732 -0.14346643 37.69917297 -0.16241455 C46.09283069 -0.14173188 54.51821681 0.28837714 61.54296875 5.390625 C65.57388377 9.81480002 67.01767749 13.74496979 67.23046875 19.703125 C65.41134145 25.36263217 61.74372068 29.72313002 56.54296875 32.640625 C51.49578517 33.80535967 46.68886922 34.33301148 41.50854492 34.36425781 C40.2166777 34.37386536 38.92481049 34.3834729 37.59379578 34.39337158 C36.19534484 34.39822046 34.79689182 34.40249907 33.3984375 34.40625 C32.33131751 34.41049107 32.33131751 34.41049107 31.24263954 34.41481781 C27.47808085 34.42976125 23.71356 34.4390214 19.94897461 34.44335938 C16.08241933 34.44883824 12.2162172 34.47286756 8.34977245 34.50133133 C5.35642008 34.52005344 2.36315121 34.52516836 -0.63025475 34.52669525 C-2.05466327 34.52970053 -3.47907109 34.53765628 -4.9034214 34.55088043 C-22.26698582 34.70059249 -22.26698582 34.70059249 -29.0859375 29.546875 C-32.69532864 24.69322082 -33.72484475 20.80958094 -33.33984375 14.75 C-32.54026691 10.1769816 -30.68683934 7.6299733 -27.09375 4.76953125 C-18.84164699 -0.8867646 -9.68122855 0.0319274 0 0 Z " fill="#FA9833" transform="translate(757.89453125,519.796875)"/>
<path d="M0 0 C4.12661522 3.6876136 5.97829338 7.33171138 6.8984375 12.69921875 C7.07730693 16.75129922 6.1597013 19.59618703 4 23 C-1.07083341 27.79157371 -6.97440452 30.60607042 -13.37890625 33.171875 C-14.70175629 33.71857597 -14.70175629 33.71857597 -16.05133057 34.27632141 C-18.88419244 35.44474078 -21.72313419 36.59748823 -24.5625 37.75 C-27.48197124 38.94869074 -30.39988081 40.15112531 -33.31767273 41.35389709 C-35.23275 42.14308502 -37.14836495 42.93096952 -39.06452942 43.71751404 C-47.26757796 47.08974392 -55.39870219 50.60786135 -63.47680664 54.27050781 C-70.45870319 57.38109325 -75.52943749 58.79312406 -82.8828125 56.08203125 C-87.08634313 53.93373239 -89.03725248 50.66292754 -91.375 46.625 C-92.59852543 41.48619319 -91.70077749 37.42958607 -89.4375 32.8125 C-83.91665711 26.44229667 -75.91182893 23.45162535 -68.2890625 20.2421875 C-67.2808847 19.81245636 -66.27270691 19.38272522 -65.23397827 18.93997192 C-63.11245328 18.03759909 -60.98951082 17.13855224 -58.86523438 16.24267578 C-55.6379942 14.88048474 -52.4164226 13.50552044 -49.1953125 12.12890625 C-47.12272186 11.24923146 -45.04981533 10.37030048 -42.9765625 9.4921875 C-42.02520416 9.08588104 -41.07384583 8.67957458 -40.09365845 8.26095581 C-34.76437063 6.02263967 -29.49302239 4.16276033 -23.89926147 2.69363403 C-21.80064521 2.1735687 -21.80064521 2.1735687 -21 0 C-13.6644861 -2.91753394 -6.99707844 -4.17243817 0 0 Z " fill="#FA9832" transform="translate(798,384)"/>
<path d="M0 0 C1.90967308 -0.00855011 1.90967308 -0.00855011 3.85792542 -0.01727295 C6.53984132 -0.02668221 9.22164646 -0.03360069 11.90356445 -0.03710938 C15.31370668 -0.04259715 18.72345035 -0.06666216 22.13346767 -0.09508133 C25.42228069 -0.11834367 28.71111629 -0.12016461 32 -0.125 C33.81605995 -0.1435202 33.81605995 -0.1435202 35.66880798 -0.16241455 C43.87496109 -0.14102576 52.14828589 0.40242172 59.00390625 5.390625 C62.11002032 8.79977459 63.85369065 11.62372248 64.56640625 16.203125 C64.25718037 21.81604328 62.71612838 26.28394299 58.56640625 30.203125 C52.78927976 33.64481737 47.73541259 34.32419985 41.09887695 34.36425781 C39.8101619 34.37386536 38.52144684 34.3834729 37.19367981 34.39337158 C35.79318419 34.39822134 34.39268649 34.40249973 32.9921875 34.40625 C32.28110525 34.40907738 31.570023 34.41190475 30.83739281 34.41481781 C27.07168587 34.42977874 23.30601691 34.43902677 19.5402832 34.44335938 C15.67491801 34.44882851 11.80990782 34.47283212 7.94465351 34.50133133 C4.95125864 34.52007647 1.9579471 34.52516965 -1.03550148 34.52669525 C-2.45908351 34.52969739 -3.88266494 34.53764214 -5.30618858 34.55088043 C-24.04245506 34.71263612 -24.04245506 34.71263612 -30.07328796 29.89263916 C-34.08281011 25.46542941 -35.40163089 21.18482258 -35.49609375 15.328125 C-34.65604485 10.06516806 -31.29466644 6.65820507 -27.43359375 3.203125 C-19.96627933 -1.3165653 -8.43552772 0.02956135 0 0 Z " fill="#FA9732" transform="translate(234.43359375,519.796875)"/>
<path d="M0 0 C4.6107333 2.52875489 6.87528096 5.83111975 8.6875 10.75 C9.04296933 18.21485585 5.85525631 23.44956175 1.5625 29.1875 C0.77601074 30.2695874 0.77601074 30.2695874 -0.02636719 31.37353516 C-1.73440245 33.71668641 -3.46016637 36.04604824 -5.1875 38.375 C-6.39664291 40.0215412 -7.60496852 41.6686829 -8.8125 43.31640625 C-11.75590946 47.32640601 -14.71210762 51.32677358 -17.671875 55.32470703 C-19.60389786 57.93829079 -21.5240157 60.56031691 -23.4375 63.1875 C-24.03820312 64.01121094 -24.63890625 64.83492188 -25.2578125 65.68359375 C-26.75213951 67.76778669 -28.22184101 69.86313803 -29.6796875 71.97265625 C-30.33469238 72.91177856 -30.33469238 72.91177856 -31.00292969 73.86987305 C-31.84667722 75.08122646 -32.68381286 76.29722572 -33.51269531 77.51879883 C-36.66008222 82.02221309 -40.18921673 85.87585837 -45.1875 88.375 C-51.64348971 88.92211777 -54.89498373 88.14082888 -60.1875 84.375 C-64.35203981 79.88168073 -65.76806888 75.97757999 -65.6328125 69.9296875 C-64.70965654 64.63368753 -61.31328281 60.61486498 -58.1875 56.375 C-57.68847168 55.69115234 -57.18944336 55.00730469 -56.67529297 54.30273438 C-53.74350924 50.2894482 -50.78978708 46.29305507 -47.82421875 42.3046875 C-44.41772175 37.7091217 -41.09823328 33.05743405 -37.8125 28.375 C-33.87758476 22.76768137 -29.91916436 17.18527579 -25.84765625 11.67578125 C-24.8142984 10.24366884 -23.8148656 8.78564055 -22.87109375 7.29296875 C-17.58546257 -0.99308673 -9.15601424 -4.02796929 0 0 Z " fill="#FA9833" transform="translate(691.1875,251.625)"/>
<path d="M0 0 C3.39488422 2.05107588 4.80323081 3.70484621 7 7 C7.66624845 11.07463524 7.94496094 15.24356703 5.94921875 18.953125 C3.65548598 21.74078842 1.69690967 23.79297702 -1.953125 24.23828125 C-7.4929906 24.41729051 -10.66842335 23.8033356 -15 20 C-17.53966166 15.81393699 -17.8350118 11.7785824 -17 7 C-12.9844992 -0.19506092 -7.64532582 -0.89095135 0 0 Z " fill="#FA912A" transform="translate(570,405)"/>
<path d="M0 0 C3.18500291 1.62145603 5.22111096 2.97328264 7.375 5.8125 C8.60440405 10.11541417 8.62297139 13.69472662 6.6875 17.75 C2.96389892 22.71480144 2.96389892 22.71480144 -0.0859375 23.6171875 C-3.88921871 24.0455434 -6.30348456 24.3028328 -9.875 22.75 C-14.75675676 18.72972973 -14.75675676 18.72972973 -16 15 C-16.53832527 9.29375217 -15.61757835 6.4444534 -12 2 C-7.95685624 -0.69542917 -4.74891289 -0.66452365 0 0 Z " fill="#FA912B" transform="translate(460,442)"/>
<path d="M0 0 C1.22169388 -0.00637985 2.44338776 -0.0127597 3.70210266 -0.01933289 C5.0373226 -0.0208619 6.37254306 -0.02197568 7.70776367 -0.02270508 C9.07915787 -0.0259194 10.45055172 -0.02928361 11.82194519 -0.03279114 C14.69771112 -0.03877906 17.57344702 -0.04063145 20.44921875 -0.04003906 C24.1243898 -0.03993761 27.79936691 -0.05357327 31.47449207 -0.07081127 C34.30817031 -0.08196197 37.14180218 -0.08395731 39.97550011 -0.08342934 C41.98618883 -0.08517549 43.99686308 -0.09599922 46.00752258 -0.10697937 C47.23867294 -0.10390274 48.4698233 -0.10082611 49.73828125 -0.09765625 C50.81733231 -0.09908127 51.89638336 -0.10050629 53.00813293 -0.10197449 C56.32788698 0.16668121 58.99160288 0.86715918 62.06323242 2.14526367 C62.55823242 3.13526367 62.55823242 3.13526367 63.06323242 4.14526367 C38.31323242 3.81526367 13.56323242 3.48526367 -11.93676758 3.14526367 C-7.74748034 0.35240551 -4.92903609 0.01745065 0 0 Z " fill="#FC932A" transform="translate(749.936767578125,519.854736328125)"/>
<path d="M0 0 C1.98036486 0.97674104 3.95926133 1.95645982 5.9375 2.9375 C7.03964844 3.48277344 8.14179687 4.02804687 9.27734375 4.58984375 C12 6 12 6 13 7 C13.14291332 9.48105958 13.22101769 11.93527765 13.25634766 14.41870117 C13.27095032 15.19615189 13.28555298 15.9736026 13.30059814 16.77461243 C13.42725787 23.99279657 13.49552972 31.212113 13.54844093 38.43117809 C13.58405259 43.2764806 13.63695775 48.12010217 13.73388672 52.96459961 C13.82742397 57.65384429 13.8754787 62.34160767 13.89283371 67.03173256 C13.90681752 68.80944221 13.93620313 70.58710764 13.98213577 72.36427879 C14.29608358 85.14931642 12.1183079 93.00182518 4 103 C3.67 102.34 3.34 101.68 3 101 C4.08751548 99.48953082 5.22146116 98.01245084 6.37280273 96.55004883 C11.60855698 88.52755233 11.07244371 80.46267402 11.03515625 71.19921875 C11.04751387 69.39084229 11.06149393 67.58247626 11.07701111 65.77412415 C11.1007415 62.00422694 11.0979666 58.23548163 11.07739258 54.46557617 C11.05420945 49.64113683 11.10862704 44.82105042 11.18399906 39.99727154 C11.23184135 36.27120069 11.23328999 32.54617992 11.22134209 28.81986427 C11.22221323 27.04124128 11.23867345 25.26255285 11.2712574 23.48422813 C11.35626967 18.15903959 11.34067907 13.17537306 10 8 C7.50375532 5.4242224 5.45550588 4.20606789 2.14451599 2.87019348 C1.43682571 2.58302963 0.72913544 2.29586578 0 2 C0 1.34 0 0.68 0 0 Z " fill="#F97E0C" transform="translate(543,440)"/>
<path d="M0 0 C3.25479594 0.71135746 4.86989123 1.36272248 7 4 C7.89067757 6.67203272 8.179816 8.47862219 8.31201172 11.24194336 C8.35335236 12.09808731 8.39469299 12.95423126 8.43728638 13.83631897 C8.47602875 14.76560715 8.51477112 15.69489532 8.5546875 16.65234375 C8.59673309 17.6258226 8.63877869 18.59930145 8.68209839 19.60227966 C9.09008 29.88531026 9.15149536 40.16341234 9.13037109 50.45336914 C9.12494903 53.5920075 9.13039233 56.7305062 9.13671875 59.86914062 C9.13969822 69.95911918 9.06597658 79.95578102 8 90 C7.67 90 7.34 90 7 90 C6.107555 85.42540308 5.85983483 81.0067576 5.87402344 76.36157227 C5.8721553 75.62091522 5.87028717 74.88025818 5.86836243 74.11715698 C5.86437693 72.51793831 5.8622853 70.91871402 5.86190033 69.31949043 C5.85846264 65.91207929 5.83707686 62.50485521 5.81666946 59.09751034 C5.77875471 52.76379213 5.74738665 46.4302805 5.74951172 40.09643555 C5.75030013 35.68017259 5.72688739 31.26460527 5.6876297 26.84852409 C5.6771942 25.1713162 5.6756276 23.49402779 5.68328094 21.81680489 C5.69293945 19.46638159 5.67165777 17.11805635 5.64355469 14.76782227 C5.65375137 14.0824086 5.66394806 13.39699493 5.67445374 12.69081116 C5.55332418 7.01301186 3.46546271 4.24699975 0 0 Z " fill="#FC871F" transform="translate(520,191)"/>
<path d="M0 0 C0 0.66 0 1.32 0 2 C-0.66386719 2.08636719 -1.32773437 2.17273438 -2.01171875 2.26171875 C-9.09744629 3.38922868 -12.12202728 5.06834328 -16.4296875 10.953125 C-18.32041752 13.6128122 -20.15668161 16.30721066 -22 19 C-23.94928137 21.79805904 -25.9105789 24.5875542 -27.875 27.375 C-28.39288086 28.11016846 -28.91076172 28.84533691 -29.44433594 29.6027832 C-33.19170697 34.90295498 -37.0433189 40.10743721 -40.96875 45.27734375 C-43.54585223 48.73165193 -45.98360596 52.27200882 -48.39453125 55.84375 C-50.08928598 58.11991694 -51.94952379 60.04292943 -54 62 C-53.45281659 58.26111645 -52.54873469 55.94992968 -50.26171875 52.953125 C-49.69469238 52.19902344 -49.12766602 51.44492187 -48.54345703 50.66796875 C-47.93099121 49.87003906 -47.31852539 49.07210937 -46.6875 48.25 C-45.4060636 46.54799466 -44.12614436 44.84484611 -42.84765625 43.140625 C-42.20199707 42.28275391 -41.55633789 41.42488281 -40.89111328 40.54101562 C-38.06478123 36.74338278 -35.33927098 32.87815883 -32.625 29 C-28.6927918 23.39489562 -24.72903631 17.82041507 -20.671875 12.3046875 C-19.61557653 10.84857512 -18.58105436 9.37618534 -17.578125 7.8828125 C-12.59730585 0.47307538 -8.50632261 -0.50037192 0 0 Z " fill="#FC8F24" transform="translate(686,251)"/>
<path d="M0 0 C3.32525577 3.21556851 6.25235175 6.46851516 9 10.1875 C10.15242188 11.73824219 10.15242188 11.73824219 11.328125 13.3203125 C13.35037765 16.08426425 15.32768294 18.87772435 17.296875 21.6796875 C17.86792969 22.48639893 18.43898438 23.29311035 19.02734375 24.12426758 C20.15822843 25.72491175 21.28092463 27.33137912 22.39453125 28.9440918 C25.91894662 33.92600879 28.60476678 37.39976309 34.89453125 38.51171875 C36.33892578 38.59873047 36.33892578 38.59873047 37.8125 38.6875 C39.27623047 38.78611328 39.27623047 38.78611328 40.76953125 38.88671875 C41.50558594 38.92410156 42.24164063 38.96148437 43 39 C42.34 39.99 41.68 40.98 41 42 C36.28341419 42.66032201 32.33723589 42.00451416 28.14453125 39.6796875 C23.76568053 36.24998657 20.71299281 31.58975627 17.50683594 27.09814453 C15.80136253 24.72341374 14.06324991 22.37470856 12.3203125 20.02734375 C9.84216095 16.68724018 7.36810246 13.34432817 4.90625 9.9921875 C4.39384766 9.29464355 3.88144531 8.59709961 3.35351562 7.87841797 C0 3.22438672 0 3.22438672 0 0 Z " fill="#FC8F25" transform="translate(345,298)"/>
<path d="M0 0 C3.27402212 1.38633341 4.92813248 2.84506712 6.99609375 5.71875 C7.82488037 6.85739502 7.82488037 6.85739502 8.67041016 8.01904297 C9.2535498 8.83775879 9.83668945 9.65647461 10.4375 10.5 C11.35088135 11.76094482 11.35088135 11.76094482 12.28271484 13.04736328 C14.19643223 15.69260741 16.09867733 18.34583726 18 21 C19.80831256 23.50966965 21.61874871 26.01779192 23.42993164 28.52539062 C24.53433271 30.05624989 25.63649801 31.58872536 26.73608398 33.12304688 C27.23825439 33.82236328 27.7404248 34.52167969 28.2578125 35.2421875 C28.72477539 35.89541992 29.19173828 36.54865234 29.67285156 37.22167969 C30.8470853 38.79510106 32.13184161 40.28469481 33.4296875 41.7578125 C34.20699219 42.86769531 34.20699219 42.86769531 35 44 C34.59814453 46.14013672 34.59814453 46.14013672 34 48 C27.09866273 38.67556641 20.20100541 29.35206741 13.4987793 19.88305664 C10.01511888 14.97687128 6.38524949 10.19279327 2.71484375 5.42578125 C1 3 1 3 0 0 Z " fill="#FC8F24" transform="translate(361,271)"/>
<path d="M0 0 C0.66 0.33 1.32 0.66 2 1 C1.52691406 1.62003906 1.05382812 2.24007813 0.56640625 2.87890625 C-7.82135459 14.11163861 -14.75089475 25.80954274 -20.4375 38.62939453 C-22.80183252 43.90091626 -22.80183252 43.90091626 -25 45 C-25.42456668 39.79512704 -24.20178413 36.86596663 -21.625 32.375 C-20.99851562 31.26898438 -20.37203125 30.16296875 -19.7265625 29.0234375 C-19.15679687 28.02570313 -18.58703125 27.02796875 -18 26 C-17.6896582 25.36400879 -17.37931641 24.72801758 -17.05957031 24.07275391 C-15.07287542 20.18633924 -12.54203939 16.62845721 -10.125 13 C-9.33029297 11.78957031 -9.33029297 11.78957031 -8.51953125 10.5546875 C-5.94694857 6.68623811 -3.49880415 3.11004813 0 0 Z " fill="#FC9225" transform="translate(369,401)"/>
<path d="M0 0 C4.11501745 3.39936225 7.91714517 6.90885627 11.625 10.75 C19.79401328 19.00604995 29.21322231 25.77894751 39 32 C37.22119141 32.63818359 37.22119141 32.63818359 35 33 C33.23583984 32.15478516 33.23583984 32.15478516 31.4609375 30.7890625 C30.80295166 30.29059814 30.14496582 29.79213379 29.46704102 29.27856445 C28.77666748 28.73288818 28.08629395 28.18721191 27.375 27.625 C26.66077881 27.07352295 25.94655762 26.5220459 25.21069336 25.95385742 C19.56871423 21.55417233 14.16629155 16.95214475 9 12 C8.14019531 11.19175781 7.28039062 10.38351562 6.39453125 9.55078125 C1.6417041 4.97480348 1.6417041 4.97480348 0 3 C0 2.01 0 1.02 0 0 Z " fill="#FC9226" transform="translate(377,637)"/>
<path d="M0 0 C0.33 0 0.66 0 1 0 C0.9278125 0.97710937 0.855625 1.95421875 0.78125 2.9609375 C-0.32081261 19.62545994 -0.09394192 36.30868898 0 53 C-0.33 53 -0.66 53 -1 53 C-3.17166746 45.0660595 -3.3329437 37.51042499 -3.3125 29.3125 C-3.32861328 28.03955078 -3.34472656 26.76660156 -3.36132812 25.45507812 C-3.36586081 16.53928713 -2.20523626 8.62653717 0 0 Z " fill="#FC9127" transform="translate(332,486)"/>
<path d="M0 0 C0.66 0 1.32 0 2 0 C1.38774318 3.18727195 0.33202871 5.23416808 -1.58984375 7.8359375 C-2.12246826 8.56441895 -2.65509277 9.29290039 -3.20385742 10.04345703 C-4.0620105 11.1975708 -4.0620105 11.1975708 -4.9375 12.375 C-6.1203752 13.98394616 -7.30265959 15.59332683 -8.484375 17.203125 C-9.07541016 18.00556641 -9.66644531 18.80800781 -10.27539062 19.63476562 C-11.88201486 21.83818799 -13.4564958 24.05968156 -15.015625 26.296875 C-15.46945557 26.9460791 -15.92328613 27.5952832 -16.39086914 28.26416016 C-17.24118564 29.48447881 -18.08690062 30.70801953 -18.92749023 31.93505859 C-19.90268512 33.3257027 -20.94496996 34.66890733 -22 36 C-22.66 36 -23.32 36 -24 36 C-22.42300855 31.08960745 -19.55490522 27.51644305 -16.4375 23.5 C-7.47695502 12.22822514 -7.47695502 12.22822514 0 0 Z " fill="#FC9024" transform="translate(679,294)"/>
<path d="M0 0 C0.33 0 0.66 0 1 0 C1.020625 1.258125 1.04125 2.51625 1.0625 3.8125 C2.17895979 13.48345576 9.84021013 21.34966275 15.79858398 28.67285156 C19 32.68004929 19 32.68004929 19 36 C18.34 36 17.68 36 17 36 C15.64306641 34.44287109 15.64306641 34.44287109 14.1015625 32.2734375 C13.25851562 31.09587891 13.25851562 31.09587891 12.3984375 29.89453125 C11.81320312 29.06308594 11.22796875 28.23164063 10.625 27.375 C10.0475 26.56675781 9.47 25.75851562 8.875 24.92578125 C7.74713949 23.3421415 6.62713335 21.7528742 5.515625 20.15771484 C4.2462856 18.35062374 2.92933766 16.57710021 1.6015625 14.8125 C-0.29887113 11.47515315 -0.41916697 9.43125691 -0.25 5.625 C-0.21390625 4.56539063 -0.1778125 3.50578125 -0.140625 2.4140625 C-0.07101562 1.21910156 -0.07101562 1.21910156 0 0 Z " fill="#FB9126" transform="translate(325,261)"/>
<path d="M0 0 C-7.69165938 5.12777292 -17.18523942 4.24770536 -26.0625 4.125 C-27.30966797 4.11597656 -28.55683594 4.10695313 -29.84179688 4.09765625 C-32.89473504 4.07426209 -35.94726306 4.04148174 -39 4 C-39 3.67 -39 3.34 -39 3 C-32.8635242 2.01947124 -26.78658296 1.67249002 -20.58398438 1.39453125 C-13.63731425 1.05337387 -6.97272359 -0.12021937 0 0 Z " fill="#FC8B1E" transform="translate(544,694)"/>
<path d="M0 0 C0.99 0 1.98 0 3 0 C4.75518076 2.40770923 6.29492431 4.76034352 7.8125 7.3125 C8.25319824 8.03711426 8.69389648 8.76172852 9.14794922 9.50830078 C19 25.82248821 19 25.82248821 19 29 C15.37261889 27.79087296 14.96332829 26.47313155 13.296875 23.18603516 C12.97203125 22.52651855 12.6471875 21.86700195 12.3125 21.1875 C9.08585367 14.86053359 5.51935676 9.03753379 1.46875 3.1953125 C0 1 0 1 0 0 Z " fill="#FC9127" transform="translate(659,408)"/>
<path d="M0 0 C0 0.99 0 1.98 0 3 C-2.97710638 3.82074855 -5.95633909 4.63172084 -8.9375 5.4375 C-10.18370117 5.78264648 -10.18370117 5.78264648 -11.45507812 6.13476562 C-16.98097705 7.61837273 -22.29887465 8.49949757 -28 9 C-26 6 -26 6 -24.13989258 5.32397461 C-23.39892334 5.18483643 -22.6579541 5.04569824 -21.89453125 4.90234375 C-21.07533203 4.74056641 -20.25613281 4.57878906 -19.41210938 4.41210938 C-18.12530273 4.17717773 -18.12530273 4.17717773 -16.8125 3.9375 C-15.13104859 3.61568493 -13.45004854 3.29150168 -11.76953125 2.96484375 C-10.96338379 2.80870605 -10.15723633 2.65256836 -9.32666016 2.49169922 C-6.16009331 1.82250031 -3.09537063 0.94243355 0 0 Z " fill="#FD9328" transform="translate(569,687)"/>
<path d="M0 0 C0.33 0 0.66 0 1 0 C1.07476562 0.59167969 1.14953125 1.18335938 1.2265625 1.79296875 C2.02894005 6.61510052 2.87990295 10.10336259 7.0703125 13.13671875 C10.85419129 14.82950663 14.90425999 14.91096217 19 15 C15.63522727 17.99090909 15.63522727 17.99090909 12.81640625 18.03125 C6.08022946 16.44352029 2.88129755 13.82194633 -1 8 C-0.96856707 5.26009592 -0.44521663 2.71582146 0 0 Z " fill="#FB9028" transform="translate(499,283)"/>
<path d="M0 0 C-1.11375 0.70125 -2.2275 1.4025 -3.375 2.125 C-6.95338041 4.71300038 -8.22697997 6.53366206 -9 11 C-9.13319125 14.00913572 -9.12036662 16.99083454 -9 20 C-9.99 19.67 -10.98 19.34 -12 19 C-12.62460568 9.24921136 -12.62460568 9.24921136 -10.25 4.5 C-4.87469287 -1.47256347 -4.87469287 -1.47256347 0 0 Z " fill="#FC8E24" transform="translate(737,524)"/>
<path d="M0 0 C0.99 1.485 0.99 1.485 2 3 C1.67 3.99 1.34 4.98 1 6 C-0.5 4.625 -0.5 4.625 -2 3 C-2 2.34 -2 1.68 -2 1 C-5.60993172 -0.13480527 -8.9842327 -0.10015767 -12.75 -0.0625 C-14.50570313 -0.04896484 -14.50570313 -0.04896484 -16.296875 -0.03515625 C-17.18890625 -0.02355469 -18.0809375 -0.01195312 -19 0 C-18.67 -0.99 -18.34 -1.98 -18 -3 C-11.29907301 -5.83500757 -5.60774972 -3.84845569 0 0 Z " fill="#FB942D" transform="translate(351,254)"/>
<path d="M0 0 C1.00289062 0.10183594 2.00578125 0.20367187 3.0390625 0.30859375 C3.80992187 0.39238281 4.58078125 0.47617188 5.375 0.5625 C5.375 0.8925 5.375 1.2225 5.375 1.5625 C-0.565 2.0575 -0.565 2.0575 -6.625 2.5625 C-6.955 3.5525 -7.285 4.5425 -7.625 5.5625 C-8.615 5.8925 -9.605 6.2225 -10.625 6.5625 C-11.85469878 10.07440809 -11.85469878 10.07440809 -12.625 13.5625 C-13.285 12.9025 -13.945 12.2425 -14.625 11.5625 C-14.625 8.49817847 -14.40090471 6.41305443 -12.28515625 4.09375 C-7.79508144 0.31725676 -5.7258637 -0.59921829 0 0 Z " fill="#FC9026" transform="translate(512.625,188.4375)"/>
<path d="M0 0 C-0.95091673 2.50696229 -1.93801378 3.94401245 -3.9375 5.75 C-8.58173905 7.64560777 -13.05094718 7.5787498 -18 7 C-21.1875 5.5 -21.1875 5.5 -23 4 C-21 3 -21 3 -18.875 3.4375 C-13.25079403 4.53788812 -9.55126485 4.91926806 -4.625 2 C-2 0 -2 0 0 0 Z " fill="#FC8E24" transform="translate(314,434)"/>
<path d="M0 0 C4.93321834 0.70192085 9.25974682 2.63530775 13.8125 4.5625 C14.60076172 4.89185547 15.38902344 5.22121094 16.20117188 5.56054688 C18.13583796 6.36958906 20.06815753 7.18423852 22 8 C22 8.33 22 8.66 22 9 C14.40539016 8.62026951 7.67266849 6.7479599 1 3 C0.67 2.01 0.34 1.02 0 0 Z " fill="#FC9126" transform="translate(435,680)"/>
<path d="M0 0 C-3 2 -3 2 -6.875 2.75 C-12.78542572 4.10809414 -14.74822149 8.12233223 -18 13 C-18.5 10.4375 -18.5 10.4375 -18 7 C-12.46507207 0.65225048 -8.37524053 -1.42221066 0 0 Z " fill="#FC9026" transform="translate(219,522)"/>
<path d="M0 0 C4.53232891 3.74520176 5.03566354 9.46176213 6 15 C6.20887508 18.35505592 6.20037833 21.6455184 6 25 C3.6952522 21.09646319 2.87669922 16.87037658 1.875 12.5 C1.69324219 11.74074219 1.51148438 10.98148437 1.32421875 10.19921875 C0.49012744 6.61827036 0 3.72626421 0 0 Z " fill="#FB8D21" transform="translate(686,461)"/>
<path d="M0 0 C-2.96503513 2.96503513 -6.52963443 3.81603603 -10.4375 5.1875 C-11.21416016 5.47302734 -11.99082031 5.75855469 -12.79101562 6.05273438 C-13.9134668 6.45008789 -13.9134668 6.45008789 -15.05859375 6.85546875 C-16.08424438 7.22128052 -16.08424438 7.22128052 -17.13061523 7.59448242 C-19 8 -19 8 -22 7 C-15.784434 1.91983013 -7.99640312 -0.71079139 0 0 Z " fill="#FC9024" transform="translate(463,339)"/>
<path d="M0 0 C3.41615284 0.2928131 4.96147783 0.96954061 7.6875 3.125 C10.35754846 6.4445197 11.32549376 8.80307232 12 13 C11.125 15.9375 11.125 15.9375 10 18 C9.67 18 9.34 18 9 18 C8.96261719 17.39671875 8.92523437 16.7934375 8.88671875 16.171875 C8.50675198 11.5526711 8.24820627 8.53065899 5 5 C5 4.34 5 3.68 5 3 C3.35 2.67 1.7 2.34 0 2 C0 1.34 0 0.68 0 0 Z " fill="#FB8E23" transform="translate(688,252)"/>
<path d="M0 0 C1.75 0.125 1.75 0.125 4 1 C7.44119135 5.12942962 8.89824253 8.60685435 9 14 C7.50390625 15.70703125 7.50390625 15.70703125 6 17 C5.96132813 16.12988281 5.96132813 16.12988281 5.921875 15.2421875 C5.52154681 9.72857658 4.48768049 6.46859062 1 2 C0.67 1.34 0.34 0.68 0 0 Z " fill="#FC8A1F" transform="translate(796,385)"/>
<path d="M0 0 C0.66 0 1.32 0 2 0 C3.33457304 5.61827252 2.71222727 10.71712652 2.0625 16.375 C1.96259766 17.30183594 1.86269531 18.22867188 1.75976562 19.18359375 C1.51371624 21.45662136 1.26027524 23.72856491 1 26 C0.67 26 0.34 26 0 26 C0 17.42 0 8.84 0 0 Z " fill="#FC7D11" transform="translate(526,222)"/>
<path d="M0 0 C2.9552728 2.61778794 4.75832727 5.67583335 6.75 9.0625 C7.38421875 10.12597656 8.0184375 11.18945312 8.671875 12.28515625 C9.11015625 13.18105469 9.5484375 14.07695313 10 15 C9.67 15.66 9.34 16.32 9 17 C4.86297417 13.47586688 2.13052394 8.95958031 0 4 C0 2.68 0 1.36 0 0 Z " fill="#FC9024" transform="translate(350,598)"/>
<path d="M0 0 C0.33 0.99 0.66 1.98 1 3 C-3.29 7.29 -7.58 11.58 -12 16 C-12.99 15.67 -13.98 15.34 -15 15 C-14.25234375 14.33613281 -13.5046875 13.67226563 -12.734375 12.98828125 C-11.73940016 12.09655851 -10.74461877 11.20461989 -9.75 10.3125 C-8.28820312 9.00732422 -8.28820312 9.00732422 -6.796875 7.67578125 C-4.26347429 5.25206689 -2.11227089 2.7912151 0 0 Z " fill="#FD8A1A" transform="translate(647,636)"/>
<path d="M0 0 C0.5775 0.763125 1.155 1.52625 1.75 2.3125 C6.06354451 7.46478928 9.56338502 8.60540009 16 10 C16 10.33 16 10.66 16 11 C11.99229685 11.49073916 8.48066165 11.79666034 4.84375 9.83984375 C1.81951289 7.41673574 0.15783443 6.03719768 -0.4375 2.125 C-0.2209375 1.073125 -0.2209375 1.073125 0 0 Z " fill="#FC8A1F" transform="translate(628,328)"/>
<path d="M0 0 C4.10447392 0.51776621 5.95699523 2.64627444 8.75 5.5625 C9.94882812 6.80193359 9.94882812 6.80193359 11.171875 8.06640625 C11.77515625 8.70449219 12.3784375 9.34257812 13 10 C12.67 10.99 12.34 11.98 12 13 C9.99698146 11.0238076 7.99750133 9.04425526 6 7.0625 C5.42765625 6.49853516 4.8553125 5.93457031 4.265625 5.35351562 C2.82474495 3.92121224 1.41012857 2.46258871 0 1 C0 0.67 0 0.34 0 0 Z " fill="#FD8F20" transform="translate(633,379)"/>
<path d="M0 0 C0.66 0 1.32 0 2 0 C4.44723163 5.04741524 4.77882289 9.66353134 3 15 C2.01 15.33 1.02 15.66 0 16 C0.08378906 15.43152344 0.16757812 14.86304688 0.25390625 14.27734375 C0.91910197 9.23364455 0.9568837 4.99705931 0 0 Z " fill="#FC9127" transform="translate(314,417)"/>
<path d="M0 0 C-1 3 -1 3 -2.890625 4.16796875 C-10.72189969 7.55201294 -10.72189969 7.55201294 -15 7 C-13.48523802 3.97047604 -11.14631984 3.62906229 -8.0625 2.375 C-6.98097656 1.92898438 -5.89945313 1.48296875 -4.78515625 1.0234375 C-2 0 -2 0 0 0 Z " fill="#FD9022" transform="translate(593,678)"/>
<path d="M0 0 C0.66 0 1.32 0 2 0 C2.15887802 4.40886502 1.63526218 8.11776684 0.5 12.375 C0.2215625 13.43460937 -0.056875 14.49421875 -0.34375 15.5859375 C-0.5603125 16.38257813 -0.776875 17.17921875 -1 18 C-1.33 18 -1.66 18 -2 18 C-2.2361959 11.59646678 -1.823321 6.15370839 0 0 Z " fill="#FC9024" transform="translate(335,467)"/>
<path d="M0 0 C5.70709064 0.46588495 9.15939723 1.93757784 14 5 C13.01 5.66 12.02 6.32 11 7 C7.37 5.02 3.74 3.04 0 1 C0 0.67 0 0.34 0 0 Z " fill="#FD9126" transform="translate(591,351)"/>
<path d="M0 0 C0.33 0.99 0.66 1.98 1 3 C-0.65234375 5.69921875 -0.65234375 5.69921875 -2.9375 8.6875 C-3.68902344 9.68136719 -4.44054687 10.67523437 -5.21484375 11.69921875 C-5.80394531 12.45847656 -6.39304687 13.21773437 -7 14 C-7.74609375 12.328125 -7.74609375 12.328125 -8 10 C-6.34765625 7.421875 -6.34765625 7.421875 -4.0625 4.75 C-2.93521484 3.41195312 -2.93521484 3.41195312 -1.78515625 2.046875 C-1.19605469 1.37140625 -0.60695313 0.6959375 0 0 Z " fill="#FC9227" transform="translate(659,621)"/>
<path d="M0 0 C3.29097902 0.56741018 4.90253433 1.3898205 7 4 C7.51171875 6.26171875 7.51171875 6.26171875 7.6875 8.6875 C7.75324219 9.49574219 7.81898438 10.30398437 7.88671875 11.13671875 C7.92410156 11.75160156 7.96148438 12.36648437 8 13 C7.34 13 6.68 13 6 13 C5.62875 11.1746875 5.62875 11.1746875 5.25 9.3125 C4.2950075 5.41640742 2.77218915 2.95700176 0 0 Z " fill="#FC8A20" transform="translate(520,191)"/>
<path d="M0 0 C-0.53109375 0.31453125 -1.0621875 0.6290625 -1.609375 0.953125 C-5.51541152 3.31955588 -8.93604926 5.55305542 -12 9 C-11.70179167 5.42150008 -11.25754642 4.23773516 -8.5625 1.75 C-5.04800094 -0.6501457 -4.03595292 -1.21078588 0 0 Z " fill="#FD8D20" transform="translate(721,411)"/>
<path d="M0 0 C0.66 0.66 1.32 1.32 2 2 C1.98252073 4.75589777 1.86136729 7.38786676 1.625 10.125 C1.56828125 10.87910156 1.5115625 11.63320313 1.453125 12.41015625 C1.3115535 14.27418096 1.15700041 16.13721137 1 18 C0.67 18 0.34 18 0 18 C-1.12536783 12.65450281 -2.53466037 5.06932075 0 0 Z " fill="#FD7D13" transform="translate(527,263)"/>
<path d="M0 0 C-2.7596861 1.83979073 -4.29741882 2.48323221 -7.4375 3.1875 C-8.19933594 3.36667969 -8.96117187 3.54585938 -9.74609375 3.73046875 C-12.12958496 4.0154963 -13.73104204 3.72875415 -16 3 C-10.4477112 0.1647887 -6.19887485 -0.37952295 0 0 Z " fill="#FD8D1D" transform="translate(480,335)"/>
<path d="M0 0 C0.33 0 0.66 0 1 0 C1.10841951 1.91541138 1.18578079 3.83259773 1.25 5.75 C1.29640625 6.81734375 1.3428125 7.8846875 1.390625 8.984375 C0.91735478 12.63802112 -0.19155042 13.72228105 -3 16 C-3.99 15.67 -4.98 15.34 -6 15 C-5.01 14.67 -4.02 14.34 -3 14 C-1.96259118 10.74625076 -1.96259118 10.74625076 -1.3125 6.9375 C-1.06113281 5.64714844 -0.80976563 4.35679687 -0.55078125 3.02734375 C-0.36902344 2.02832031 -0.18726563 1.02929688 0 0 Z " fill="#FD8818" transform="translate(396,320)"/>
<path d="M0 0 C3.83032799 0.29464061 6.35234913 0.53045312 9.5 2.8125 C11 5 11 5 10.75 7.25 C10.5025 7.8275 10.255 8.405 10 9 C9.46375 8.236875 8.9275 7.47375 8.375 6.6875 C5.79794186 3.77135526 3.54185596 2.5294378 0 1 C0 0.67 0 0.34 0 0 Z " fill="#FC8E21" transform="translate(285,523)"/>
<path d="M0 0 C0.99 0.99 1.98 1.98 3 3 C-1.95 3 -6.9 3 -12 3 C-7.86978168 0.24652112 -4.91637698 -0.40969808 0 0 Z " fill="#FD8D20" transform="translate(750,520)"/>
<path d="M0 0 C4.23429756 1.31061591 8.07407404 2.94356259 12 5 C11.67 5.66 11.34 6.32 11 7 C3.62702703 4.65405405 3.62702703 4.65405405 1 3 C0.67 2.01 0.34 1.02 0 0 Z " fill="#FD9125" transform="translate(421,673)"/>
<path d="M0 0 C5.80205656 5.64524422 5.80205656 5.64524422 8 9 C8 9.66 8 10.32 8 11 C4.19986075 9.50708815 2.25081784 7.37622677 0 4 C0 2.68 0 1.36 0 0 Z " fill="#FD9124" transform="translate(362,618)"/>
<path d="M0 0 C1.32 0.33 2.64 0.66 4 1 C-0.455 4.465 -0.455 4.465 -5 8 C-5.66 7.67 -6.32 7.34 -7 7 C-4.66666667 4.66666667 -2.33333333 2.33333333 0 0 Z " fill="#FC8D1F" transform="translate(409,362)"/>
<path d="M0 0 C4.5076467 0.53031138 7.41954788 2.25221116 11 5 C11 5.66 11 6.32 11 7 C6.89188572 5.55007731 3.53144334 3.54592427 0 1 C0 0.67 0 0.34 0 0 Z " fill="#FD9023" transform="translate(606,359)"/>
<path d="M0 0 C0.33 0 0.66 0 1 0 C1.03738281 0.59167969 1.07476562 1.18335938 1.11328125 1.79296875 C1.51868108 6.66571569 2.14280897 9.90055199 5 14 C5 14.66 5 15.32 5 16 C1.125 14.25 1.125 14.25 0 12 C-0.07065617 9.95944995 -0.08421976 7.91665743 -0.0625 5.875 C-0.05347656 4.77929688 -0.04445313 3.68359375 -0.03515625 2.5546875 C-0.02355469 1.71164062 -0.01195312 0.86859375 0 0 Z " fill="#FC8617" transform="translate(325,261)"/>
<path d="M0 0 C-2 2 -2 2 -4.6015625 2.1953125 C-5.59929687 2.17210937 -6.59703125 2.14890625 -7.625 2.125 C-9.12933594 2.09792969 -9.12933594 2.09792969 -10.6640625 2.0703125 C-11.43492187 2.04710937 -12.20578125 2.02390625 -13 2 C-12.67 1.34 -12.34 0.68 -12 0 C-10.0390625 -0.44921875 -10.0390625 -0.44921875 -7.625 -0.6875 C-6.43777344 -0.81705078 -6.43777344 -0.81705078 -5.2265625 -0.94921875 C-3 -1 -3 -1 0 0 Z " fill="#FD891A" transform="translate(289,551)"/>
<path d="M0 0 C-1.45264038 0.8638129 -2.9123163 1.71580454 -4.375 2.5625 C-5.59316406 3.27599609 -5.59316406 3.27599609 -6.8359375 4.00390625 C-7.55007813 4.33261719 -8.26421875 4.66132813 -9 5 C-9.66 4.67 -10.32 4.34 -11 4 C-8.00099197 -0.49851204 -5.10249759 -1.5198929 0 0 Z " fill="#FD9023" transform="translate(434,351)"/>
<path d="M0 0 C0.66 0.33 1.32 0.66 2 1 C-3.75 6 -3.75 6 -6 6 C-6.33 6.99 -6.66 7.98 -7 9 C-7.66 8.67 -8.32 8.34 -9 8 C-8.07038578 6.84775972 -7.1309875 5.70340824 -6.1875 4.5625 C-5.66542969 3.92441406 -5.14335937 3.28632813 -4.60546875 2.62890625 C-3 1 -3 1 0 0 Z " fill="#FC8E1F" transform="translate(398,372)"/>
<path d="M0 0 C3.96 0.33 7.92 0.66 12 1 C8 4 8 4 4.875 3.875 C2 3 2 3 0 0 Z " fill="#FB881F" transform="translate(506,297)"/>
<path d="M0 0 C5.46900489 0.48613377 5.46900489 0.48613377 7.9375 2.875 C8.288125 3.57625 8.63875 4.2775 9 5 C8.67 5.99 8.34 6.98 8 8 C6.5 6.625 6.5 6.625 5 5 C5 4.34 5 3.68 5 3 C2.525 2.01 2.525 2.01 0 1 C0 0.67 0 0.34 0 0 Z " fill="#FC8E20" transform="translate(344,252)"/>
<path d="M0 0 C0.75 1.625 0.75 1.625 1 4 C-0.8125 7.25 -0.8125 7.25 -3 10 C-3.66 10 -4.32 10 -5 10 C-3.84414715 6.08788267 -2.64465038 3.1254959 0 0 Z " fill="#FC9125" transform="translate(670,604)"/>
<path d="M0 0 C0.5775 0.37125 1.155 0.7425 1.75 1.125 C-5.53571429 4.55357143 -5.53571429 4.55357143 -10.25 4.125 C-3.34459459 -1.30067568 -3.34459459 -1.30067568 0 0 Z " fill="#FD9228" transform="translate(773.25,419.875)"/>
<path d="M0 0 C6.4 0.49230769 6.4 0.49230769 9.4375 3.0625 C10.2109375 4.0215625 10.2109375 4.0215625 11 5 C9.35153231 4.55123384 7.70626545 4.09069512 6.0625 3.625 C5.14597656 3.36976563 4.22945313 3.11453125 3.28515625 2.8515625 C1 2 1 2 0 0 Z " fill="#FE8F24" transform="translate(260,392)"/>
<path d="M0 0 C0.33 0.99 0.66 1.98 1 3 C1.66 3 2.32 3 3 3 C2.6875 5.875 2.6875 5.875 2 9 C1.01 9.66 0.02 10.32 -1 11 C-0.67 7.37 -0.34 3.74 0 0 Z " fill="#FC8C21" transform="translate(296,533)"/>
<path d="M0 0 C1.5 1.125 1.5 1.125 3 3 C3.1875 6.1875 3.1875 6.1875 3 9 C1.68 8.67 0.36 8.34 -1 8 C-0.67 5.36 -0.34 2.72 0 0 Z " fill="#F99F3F" transform="translate(200,531)"/>
<path d="M0 0 C4.12751449 0.60698743 7.3321148 2.03810791 11 4 C11 4.33 11 4.66 11 5 C4.6 4.50769231 4.6 4.50769231 1.5625 1.9375 C1.046875 1.298125 0.53125 0.65875 0 0 Z " fill="#FC8E23" transform="translate(256,422)"/>
<path d="M0 0 C0.33 1.32 0.66 2.64 1 4 C-1.25 6.0625 -1.25 6.0625 -4 8 C-6.3125 7.75 -6.3125 7.75 -8 7 C-7.05125 6.401875 -6.1025 5.80375 -5.125 5.1875 C-1.86035803 3.18437474 -1.86035803 3.18437474 0 0 Z " fill="#FC8C22" transform="translate(801,403)"/>
<path d="M0 0 C6.625 -0.25 6.625 -0.25 10 2 C9.67 2.66 9.34 3.32 9 4 C4.545 3.01 4.545 3.01 0 2 C0 1.34 0 0.68 0 0 Z " fill="#FD8C20" transform="translate(234,382)"/>
<path d="M0 0 C3.95820859 0.56545837 6.6659053 1.80902348 10 4 C8.375 4.75 8.375 4.75 6 5 C2.75 3.125 2.75 3.125 0 1 C0 0.67 0 0.34 0 0 Z " fill="#FC8F25" transform="translate(242,416)"/>
<path d="M0 0 C2.84383123 1.2748209 5.13754018 2.45137078 7 5 C6.57421875 7.1015625 6.57421875 7.1015625 6 9 C4.99712471 7.68969568 3.99777175 6.37669473 3 5.0625 C2.443125 4.33160156 1.88625 3.60070312 1.3125 2.84765625 C0 1 0 1 0 0 Z " fill="#FD9021" transform="translate(649,395)"/>
<path d="M0 0 C-1.14018002 3.42054006 -1.92458518 4.2426201 -5 6 C-7.13671875 5.578125 -7.13671875 5.578125 -9 5 C-7.87926138 4.16094435 -6.75325453 3.32892169 -5.625 2.5 C-4.99851562 2.0359375 -4.37203125 1.571875 -3.7265625 1.09375 C-2 0 -2 0 0 0 Z " fill="#FD9024" transform="translate(620,662)"/>
<path d="M0 0 C0.33 0 0.66 0 1 0 C1.08131463 1.43655854 1.13933559 2.8744483 1.1875 4.3125 C1.23970703 5.51326172 1.23970703 5.51326172 1.29296875 6.73828125 C0.93801608 9.47851584 0.10633718 10.29171079 -2 12 C-1.85831863 10.56208484 -1.71148957 9.1246763 -1.5625 7.6875 C-1.48128906 6.88699219 -1.40007813 6.08648438 -1.31640625 5.26171875 C-1 3 -1 3 0 0 Z " fill="#FC8C1C" transform="translate(690,548)"/>
<path d="M0 0 C1.31571603 0.2547514 2.62760376 0.52934141 3.9375 0.8125 C4.66839844 0.96332031 5.39929688 1.11414063 6.15234375 1.26953125 C6.76207031 1.51058594 7.37179688 1.75164063 8 2 C8.33 2.99 8.66 3.98 9 5 C5.625 4.75 5.625 4.75 2 4 C0.5625 1.9375 0.5625 1.9375 0 0 Z " fill="#FC9129" transform="translate(206,548)"/>
<path d="M0 0 C0.99 0 1.98 0 3 0 C4.32229189 2.64458379 4.09677194 4.67761301 4.0625 7.625 C4.05347656 8.62789062 4.04445313 9.63078125 4.03515625 10.6640625 C4.02355469 11.43492187 4.01195312 12.20578125 4 13 C3.67 13 3.34 13 3 13 C2.86722656 12.31292969 2.73445312 11.62585938 2.59765625 10.91796875 C2.42105469 10.01691406 2.24445312 9.11585938 2.0625 8.1875 C1.88847656 7.29417969 1.71445312 6.40085937 1.53515625 5.48046875 C1.02258847 2.88602829 1.02258847 2.88602829 0 0 Z " fill="#FD861B" transform="translate(819,528)"/>
<path d="M0 0 C3.37503669 1.1858237 5.64722731 2.27573689 8 5 C7.67 5.66 7.34 6.32 7 7 C4.36 5.35 1.72 3.7 -1 2 C-0.67 1.34 -0.34 0.68 0 0 Z " fill="#FB8F22" transform="translate(618,366)"/>
<path d="M0 0 C0.33 0.99 0.66 1.98 1 3 C-0.75 5.0625 -0.75 5.0625 -3 7 C-4.32 6.67 -5.64 6.34 -7 6 C-4.69 4.02 -2.38 2.04 0 0 Z " fill="#FC881C" transform="translate(653,331)"/>
<path d="M0 0 C3.42054006 1.14018002 4.2426201 1.92458518 6 5 C5.6875 7.25 5.6875 7.25 5 9 C2 5.25 2 5.25 2 3 C1.34 3 0.68 3 0 3 C0 2.01 0 1.02 0 0 Z " fill="#FD8D21" transform="translate(354,261)"/>
<path d="M0 0 C0.66 0 1.32 0 2 0 C2 2.64 2 5.28 2 8 C1.67 7.34 1.34 6.68 1 6 C0.34 6 -0.32 6 -1 6 C-1.042721 4.33388095 -1.04063832 2.66617115 -1 1 C-0.67 0.67 -0.34 0.34 0 0 Z " fill="#FB9026" transform="translate(707,422)"/>
<path d="M0 0 C0.99 0.33 1.98 0.66 3 1 C1.02 3.31 -0.96 5.62 -3 8 C-3.33 7.01 -3.66 6.02 -4 5 C-2.0625 2.3125 -2.0625 2.3125 0 0 Z " fill="#FE8F1F" transform="translate(377,390)"/>
<path d="M0 0 C0.9075 0.391875 1.815 0.78375 2.75 1.1875 C2.42 1.8475 2.09 2.5075 1.75 3.1875 C-1.22 2.8575 -4.19 2.5275 -7.25 2.1875 C-4.52596974 -0.53653026 -3.86366821 -0.96591705 0 0 Z " fill="#FE8A1C" transform="translate(792.25,381.8125)"/>
<path d="M0 0 C2.64 0.33 5.28 0.66 8 1 C8.33 1.99 8.66 2.98 9 4 C6.03 3.01 3.06 2.02 0 1 C0 0.67 0 0.34 0 0 Z " fill="#FD8F1F" transform="translate(567,341)"/>
<path d="M0 0 C1.43655854 -0.08131463 2.8744483 -0.13933559 4.3125 -0.1875 C5.51326172 -0.23970703 5.51326172 -0.23970703 6.73828125 -0.29296875 C9.47851584 0.06198392 10.29171079 0.89366282 12 3 C3.96428571 2.19642857 3.96428571 2.19642857 0 0 Z " fill="#FD8816" transform="translate(547,336)"/>
<path d="M0 0 C0.33 0.99 0.66 1.98 1 3 C-0.8125 6.1875 -0.8125 6.1875 -3 9 C-3.66 9 -4.32 9 -5 9 C-3.7508258 5.54074837 -2.32472205 2.85306797 0 0 Z " fill="#FC8D20" transform="translate(687,284)"/>
<path d="M0 0 C3 2 3 2 3.51171875 3.9453125 C3.67447917 5.96354167 3.83723958 7.98177083 4 10 C1.7448078 7.7448078 1.02276532 5.9952413 0 3 C0 2.01 0 1.02 0 0 Z " fill="#FD8A19" transform="translate(682,450)"/>
<path d="M0 0 C0.6875 1.6875 0.6875 1.6875 1 4 C-0.4375 6.75 -0.4375 6.75 -2 9 C-3 6 -3 6 -1.5625 2.8125 C-1.046875 1.884375 -0.53125 0.95625 0 0 Z " fill="#FD8E1E" transform="translate(678,588)"/>
<path d="M0 0 C2.25245881 2.68841859 3.88213958 4.64641875 5 8 C3.68 7.67 2.36 7.34 1 7 C0.67 4.69 0.34 2.38 0 0 Z " fill="#FD8C1F" transform="translate(221,400)"/>
<path d="M0 0 C0.66 0 1.32 0 2 0 C2.33 0.99 2.66 1.98 3 3 C2.01 2.67 1.02 2.34 0 2 C0 1.34 0 0.68 0 0 Z " fill="#FBA343" transform="translate(336,291)"/>
<path d="M0 0 C0.99 1.485 0.99 1.485 2 3 C1.34 3 0.68 3 0 3 C0 2.01 0 1.02 0 0 Z " fill="#FBA748" transform="translate(384,378)"/>
<path d="M0 0 C0.33 0.66 0.66 1.32 1 2 C0.34 1.67 -0.32 1.34 -1 1 C-0.67 0.67 -0.34 0.34 0 0 Z " fill="#F7A449" transform="translate(729,550)"/>
<path d="M0 0 C3 1 3 1 3 1 Z " fill="#FAA346" transform="translate(285,520)"/>
<path d="M0 0 C3 1 3 1 3 1 Z " fill="#FBA547" transform="translate(264,429)"/>
<path d="M0 0 C0.99 0.495 0.99 0.495 2 1 C1.01 1.495 1.01 1.495 0 2 C0 1.34 0 0.68 0 0 Z " fill="#FBA645" transform="translate(378,386)"/>
<path d="M0 0 C3 1 3 1 3 1 Z " fill="#F8A444" transform="translate(408,360)"/>
<path d="M0 0 C0.66 0.66 1.32 1.32 2 2 C1.34 2 0.68 2 0 2 C0 1.34 0 0.68 0 0 Z " fill="#F9A343" transform="translate(330,282)"/>
<path d="M0 0 C2 1 2 1 2 1 Z " fill="#FCA84B" transform="translate(504,700)"/>
<path d="" fill="#F9A648" transform="translate(0,0)"/>
<path d="" fill="#FAA445" transform="translate(0,0)"/>
<path d="" fill="#FCA544" transform="translate(0,0)"/>
<path d="" fill="#FAA541" transform="translate(0,0)"/>
<path d="" fill="#FCA646" transform="translate(0,0)"/>
<path d="" fill="#FBA747" transform="translate(0,0)"/>
<path d="" fill="#FDA645" transform="translate(0,0)"/>
<path d="" fill="#FBA446" transform="translate(0,0)"/>
<path d="" fill="#FBA649" transform="translate(0,0)"/>
<path d="" fill="#FAA445" transform="translate(0,0)"/>
<path d="M0 0 C2 1 2 1 2 1 Z " fill="#FCA748" transform="translate(280,436)"/>
<path d="M0 0 C2 1 2 1 2 1 Z " fill="#FAA749" transform="translate(241,419)"/>
<path d="" fill="#FCA542" transform="translate(0,0)"/>
<path d="M0 0 C2 1 2 1 2 1 Z " fill="#FAA446" transform="translate(728,403)"/>
<path d="M0 0 C2 1 2 1 2 1 Z " fill="#FBA444" transform="translate(730,402)"/>
<path d="" fill="#FBA442" transform="translate(0,0)"/>
<path d="M0 0 C2 1 2 1 2 1 Z " fill="#F9A648" transform="translate(736,400)"/>
<path d="M0 0 C2 1 2 1 2 1 Z " fill="#F7A44A" transform="translate(286,400)"/>
<path d="" fill="#FBA543" transform="translate(0,0)"/>
<path d="M0 0 C2 1 2 1 2 1 Z " fill="#FAA241" transform="translate(755,392)"/>
<path d="M0 0 C2 1 2 1 2 1 Z " fill="#F7A345" transform="translate(267,392)"/>
<path d="M0 0 C2 1 2 1 2 1 Z " fill="#FBA648" transform="translate(386,376)"/>
<path d="" fill="#FCA544" transform="translate(0,0)"/>
<path d="M0 0 C2 1 2 1 2 1 Z " fill="#FDA343" transform="translate(641,341)"/>
<path d="M0 0 C2 1 2 1 2 1 Z " fill="#FCA646" transform="translate(472,333)"/>
<path d="" fill="#F9A241" transform="translate(0,0)"/>
<path d="M0 0 C2 1 2 1 2 1 Z " fill="#FCA748" transform="translate(481,331)"/>
<path d="" fill="#F5A042" transform="translate(0,0)"/>
<path d="" fill="#F9A342" transform="translate(0,0)"/>
<path d="" fill="#F9A446" transform="translate(0,0)"/>
<path d="" fill="#F8A447" transform="translate(0,0)"/>
<path d="" fill="#F9A245" transform="translate(0,0)"/>
<path d="M0 0 C2 1 2 1 2 1 Z " fill="#FBA245" transform="translate(496,292)"/>
<path d="M0 0 C2 1 2 1 2 1 Z " fill="#F9A244" transform="translate(656,272)"/>
<path d="M0 0 C2 1 2 1 2 1 Z " fill="#F5A74F" transform="translate(682,248)"/>
<path d="" fill="#F5A84D" transform="translate(0,0)"/>
<path d="" fill="#B5AB99" transform="translate(0,0)"/>
<path d="" fill="#FAA94B" transform="translate(0,0)"/>
<path d="" fill="#FBA74B" transform="translate(0,0)"/>
<path d="" fill="#F8A94E" transform="translate(0,0)"/>
<path d="" fill="#FDA748" transform="translate(0,0)"/>
<path d="" fill="#FBA645" transform="translate(0,0)"/>
<path d="" fill="#F9A94B" transform="translate(0,0)"/>
<path d="" fill="#FAA74B" transform="translate(0,0)"/>
<path d="" fill="#FAA646" transform="translate(0,0)"/>
<path d="" fill="#F9A84D" transform="translate(0,0)"/>
<path d="" fill="#F9A445" transform="translate(0,0)"/>
<path d="" fill="#FAA548" transform="translate(0,0)"/>
<path d="" fill="#FAA84C" transform="translate(0,0)"/>
<path d="" fill="#F9A345" transform="translate(0,0)"/>
<path d="" fill="#FAA749" transform="translate(0,0)"/>
<path d="" fill="#FAA547" transform="translate(0,0)"/>
<path d="" fill="#FAA64B" transform="translate(0,0)"/>
<path d="" fill="#F8A64C" transform="translate(0,0)"/>
<path d="" fill="#F9A74B" transform="translate(0,0)"/>
<path d="" fill="#F9AA4B" transform="translate(0,0)"/>
<path d="" fill="#F8A348" transform="translate(0,0)"/>
<path d="" fill="#FBAA4B" transform="translate(0,0)"/>
<path d="" fill="#FAA94B" transform="translate(0,0)"/>
<path d="" fill="#F7A74C" transform="translate(0,0)"/>
<path d="" fill="#FAA647" transform="translate(0,0)"/>
<path d="" fill="#F6A548" transform="translate(0,0)"/>
<path d="" fill="#F8A74B" transform="translate(0,0)"/>
<path d="" fill="#FAA74B" transform="translate(0,0)"/>
<path d="" fill="#F9A547" transform="translate(0,0)"/>
<path d="" fill="#F9A446" transform="translate(0,0)"/>
<path d="" fill="#FBA84A" transform="translate(0,0)"/>
<path d="" fill="#FCA546" transform="translate(0,0)"/>
<path d="" fill="#F9A647" transform="translate(0,0)"/>
<path d="" fill="#FBA547" transform="translate(0,0)"/>
<path d="" fill="#FAA645" transform="translate(0,0)"/>
<path d="" fill="#FBA649" transform="translate(0,0)"/>
<path d="" fill="#F9A443" transform="translate(0,0)"/>
<path d="" fill="#F6A445" transform="translate(0,0)"/>
<path d="" fill="#F7A448" transform="translate(0,0)"/>
<path d="" fill="#FAA646" transform="translate(0,0)"/>
<path d="" fill="#FBA545" transform="translate(0,0)"/>
<path d="" fill="#FDA545" transform="translate(0,0)"/>
<path d="" fill="#FAA94E" transform="translate(0,0)"/>
<path d="" fill="#F5AD5A" transform="translate(0,0)"/>
<path d="" fill="#FAA445" transform="translate(0,0)"/>
<path d="" fill="#FCA849" transform="translate(0,0)"/>
<path d="" fill="#F9A648" transform="translate(0,0)"/>
<path d="" fill="#FDA445" transform="translate(0,0)"/>
<path d="" fill="#F7A142" transform="translate(0,0)"/>
<path d="" fill="#FAA244" transform="translate(0,0)"/>
<path d="" fill="#FBA747" transform="translate(0,0)"/>
<path d="" fill="#FDA646" transform="translate(0,0)"/>
<path d="" fill="#F8A244" transform="translate(0,0)"/>
<path d="" fill="#F4AC57" transform="translate(0,0)"/>
<path d="" fill="#F7AC52" transform="translate(0,0)"/>
<path d="" fill="#F9A446" transform="translate(0,0)"/>
<path d="" fill="#F5AE5A" transform="translate(0,0)"/>
<path d="" fill="#F8A64B" transform="translate(0,0)"/>
<path d="" fill="#F8A84B" transform="translate(0,0)"/>
<path d="" fill="#FBA746" transform="translate(0,0)"/>
<path d="" fill="#F3AC57" transform="translate(0,0)"/>
<path d="" fill="#F5AC58" transform="translate(0,0)"/>
<path d="" fill="#F4AE5A" transform="translate(0,0)"/>
<path d="" fill="#F9A84C" transform="translate(0,0)"/>
<path d="" fill="#FCA748" transform="translate(0,0)"/>
<path d="" fill="#FAA649" transform="translate(0,0)"/>
<path d="" fill="#FCA646" transform="translate(0,0)"/>
<path d="" fill="#FAA649" transform="translate(0,0)"/>
<path d="" fill="#FDA648" transform="translate(0,0)"/>
<path d="" fill="#FAA344" transform="translate(0,0)"/>
<path d="" fill="#FCA645" transform="translate(0,0)"/>
<path d="" fill="#F3A244" transform="translate(0,0)"/>
<path d="" fill="#FCA544" transform="translate(0,0)"/>
<path d="" fill="#FEA745" transform="translate(0,0)"/>
<path d="" fill="#F8A445" transform="translate(0,0)"/>
<path d="" fill="#FBA546" transform="translate(0,0)"/>
<path d="" fill="#F8A445" transform="translate(0,0)"/>
<path d="" fill="#F9A140" transform="translate(0,0)"/>
<path d="" fill="#FDA748" transform="translate(0,0)"/>
<path d="" fill="#FAA647" transform="translate(0,0)"/>
<path d="" fill="#FCA645" transform="translate(0,0)"/>
<path d="" fill="#FBA646" transform="translate(0,0)"/>
<path d="" fill="#FCA643" transform="translate(0,0)"/>
<path d="" fill="#F7A143" transform="translate(0,0)"/>
<path d="" fill="#F8A346" transform="translate(0,0)"/>
<path d="" fill="#FAA445" transform="translate(0,0)"/>
<path d="" fill="#FBA547" transform="translate(0,0)"/>
<path d="" fill="#FDA444" transform="translate(0,0)"/>
<path d="" fill="#FBA749" transform="translate(0,0)"/>
<path d="" fill="#FCA849" transform="translate(0,0)"/>
<path d="" fill="#FBA949" transform="translate(0,0)"/>
<path d="" fill="#F8A647" transform="translate(0,0)"/>
<path d="" fill="#FCA74B" transform="translate(0,0)"/>
<path d="" fill="#FAA543" transform="translate(0,0)"/>
<path d="" fill="#F9A44B" transform="translate(0,0)"/>
<path d="" fill="#FBA545" transform="translate(0,0)"/>
<path d="" fill="#F6A548" transform="translate(0,0)"/>
<path d="" fill="#F6A74E" transform="translate(0,0)"/>
<path d="" fill="#F9A64B" transform="translate(0,0)"/>
<path d="" fill="#FAA64A" transform="translate(0,0)"/>
<path d="" fill="#F9A84F" transform="translate(0,0)"/>
<path d="" fill="#FAA84D" transform="translate(0,0)"/>
<path d="" fill="#F9A644" transform="translate(0,0)"/>
<path d="" fill="#F8A850" transform="translate(0,0)"/>
<path d="" fill="#F8A348" transform="translate(0,0)"/>
<path d="" fill="#F9A245" transform="translate(0,0)"/>
<path d="" fill="#FAA448" transform="translate(0,0)"/>
<path d="" fill="#F9A746" transform="translate(0,0)"/>
<path d="" fill="#F6AA53" transform="translate(0,0)"/>
<path d="" fill="#F2A955" transform="translate(0,0)"/>
<path d="" fill="#F3A954" transform="translate(0,0)"/>
<path d="" fill="#FBA541" transform="translate(0,0)"/>
<path d="" fill="#F3AA55" transform="translate(0,0)"/>
<path d="" fill="#FBA545" transform="translate(0,0)"/>
<path d="" fill="#F9A343" transform="translate(0,0)"/>
<path d="" fill="#FAA446" transform="translate(0,0)"/>
<path d="" fill="#FBA448" transform="translate(0,0)"/>
<path d="" fill="#FDA645" transform="translate(0,0)"/>
<path d="" fill="#F2AC56" transform="translate(0,0)"/>
<path d="" fill="#F9A548" transform="translate(0,0)"/>
<path d="" fill="#F9A645" transform="translate(0,0)"/>
<path d="" fill="#FBA543" transform="translate(0,0)"/>
<path d="" fill="#FFA645" transform="translate(0,0)"/>
<path d="" fill="#FEA340" transform="translate(0,0)"/>
<path d="" fill="#F1AB58" transform="translate(0,0)"/>
<path d="" fill="#FCA745" transform="translate(0,0)"/>
<path d="" fill="#F9A648" transform="translate(0,0)"/>
<path d="" fill="#FBA747" transform="translate(0,0)"/>
<path d="" fill="#FBA644" transform="translate(0,0)"/>
<path d="" fill="#F8A64A" transform="translate(0,0)"/>
<path d="" fill="#FCA645" transform="translate(0,0)"/>
<path d="" fill="#FBA546" transform="translate(0,0)"/>
<path d="" fill="#FBA749" transform="translate(0,0)"/>
<path d="" fill="#FDA745" transform="translate(0,0)"/>
<path d="" fill="#FAA644" transform="translate(0,0)"/>
<path d="" fill="#F4A855" transform="translate(0,0)"/>
<path d="" fill="#F2A955" transform="translate(0,0)"/>
<path d="" fill="#FBA441" transform="translate(0,0)"/>
<path d="" fill="#FBA749" transform="translate(0,0)"/>
<path d="" fill="#FBA747" transform="translate(0,0)"/>
<path d="" fill="#FAA644" transform="translate(0,0)"/>
<path d="" fill="#FAA240" transform="translate(0,0)"/>
<path d="" fill="#FAA544" transform="translate(0,0)"/>
<path d="" fill="#FBA545" transform="translate(0,0)"/>
<path d="" fill="#FBA542" transform="translate(0,0)"/>
<path d="" fill="#FDA442" transform="translate(0,0)"/>
<path d="" fill="#FDA442" transform="translate(0,0)"/>
<path d="" fill="#FCA542" transform="translate(0,0)"/>
<path d="" fill="#FDA241" transform="translate(0,0)"/>
<path d="" fill="#FBA345" transform="translate(0,0)"/>
<path d="" fill="#FBA343" transform="translate(0,0)"/>
<path d="" fill="#FDA245" transform="translate(0,0)"/>
<path d="" fill="#FCA443" transform="translate(0,0)"/>
<path d="" fill="#FBA546" transform="translate(0,0)"/>
<path d="" fill="#FBA644" transform="translate(0,0)"/>
<path d="" fill="#FDA947" transform="translate(0,0)"/>
<path d="" fill="#FAA340" transform="translate(0,0)"/>
<path d="" fill="#F6A143" transform="translate(0,0)"/>
<path d="" fill="#F7A343" transform="translate(0,0)"/>
<path d="" fill="#FCA646" transform="translate(0,0)"/>
<path d="" fill="#FDA747" transform="translate(0,0)"/>
<path d="" fill="#FCA747" transform="translate(0,0)"/>
<path d="" fill="#FFA743" transform="translate(0,0)"/>
<path d="" fill="#FAA241" transform="translate(0,0)"/>
<path d="" fill="#FAA444" transform="translate(0,0)"/>
<path d="" fill="#FCA642" transform="translate(0,0)"/>
<path d="" fill="#FBA544" transform="translate(0,0)"/>
<path d="" fill="#F9A144" transform="translate(0,0)"/>
<path d="" fill="#F9A244" transform="translate(0,0)"/>
<path d="" fill="#F8A143" transform="translate(0,0)"/>
<path d="" fill="#FDA141" transform="translate(0,0)"/>
<path d="" fill="#FAA241" transform="translate(0,0)"/>
<path d="" fill="#FAA144" transform="translate(0,0)"/>
<path d="" fill="#FAA340" transform="translate(0,0)"/>
<path d="" fill="#FAA341" transform="translate(0,0)"/>
<path d="" fill="#FBA645" transform="translate(0,0)"/>
<path d="" fill="#F79D42" transform="translate(0,0)"/>
<path d="" fill="#F8A13F" transform="translate(0,0)"/>
<path d="" fill="#FBA443" transform="translate(0,0)"/>
<path d="" fill="#FAA443" transform="translate(0,0)"/>
<path d="" fill="#F8A345" transform="translate(0,0)"/>
<path d="" fill="#FCA342" transform="translate(0,0)"/>
<path d="" fill="#FDA443" transform="translate(0,0)"/>
<path d="" fill="#F7A647" transform="translate(0,0)"/>
<path d="" fill="#F7A142" transform="translate(0,0)"/>
<path d="" fill="#F9A141" transform="translate(0,0)"/>
<path d="" fill="#FBA344" transform="translate(0,0)"/>
<path d="" fill="#FEA540" transform="translate(0,0)"/>
<path d="" fill="#FEA442" transform="translate(0,0)"/>
<path d="" fill="#F8A244" transform="translate(0,0)"/>
<path d="" fill="#FAA244" transform="translate(0,0)"/>
<path d="" fill="#FCA645" transform="translate(0,0)"/>
<path d="" fill="#FAA446" transform="translate(0,0)"/>
<path d="" fill="#FCA142" transform="translate(0,0)"/>
<path d="" fill="#FCA243" transform="translate(0,0)"/>
<path d="" fill="#F8A446" transform="translate(0,0)"/>
<path d="" fill="#F9A345" transform="translate(0,0)"/>
<path d="" fill="#FDA344" transform="translate(0,0)"/>
<path d="" fill="#F9A242" transform="translate(0,0)"/>
<path d="" fill="#FBA341" transform="translate(0,0)"/>
<path d="" fill="#FAA343" transform="translate(0,0)"/>
<path d="" fill="#F7A441" transform="translate(0,0)"/>
<path d="" fill="#F5A244" transform="translate(0,0)"/>
<path d="" fill="#FAA74C" transform="translate(0,0)"/>
<path d="" fill="#F9A545" transform="translate(0,0)"/>
<path d="" fill="#F5A54B" transform="translate(0,0)"/>
<path d="" fill="#F6A94F" transform="translate(0,0)"/>
<path d="" fill="#F8A546" transform="translate(0,0)"/>
<path d="" fill="#F8A244" transform="translate(0,0)"/>
<path d="" fill="#F8A64A" transform="translate(0,0)"/>
<path d="" fill="#F2A64E" transform="translate(0,0)"/>
<path d="" fill="#F1A750" transform="translate(0,0)"/>
<path d="" fill="#F4AA51" transform="translate(0,0)"/>
<path d="" fill="#F2A54D" transform="translate(0,0)"/>
<path d="" fill="#F3A64D" transform="translate(0,0)"/>
<path d="" fill="#F1A854" transform="translate(0,0)"/>
<path d="" fill="#F4A952" transform="translate(0,0)"/>
<path d="" fill="#F6A74D" transform="translate(0,0)"/>
<path d="" fill="#F6A74B" transform="translate(0,0)"/>
<path d="" fill="#F5A94E" transform="translate(0,0)"/>
<path d="" fill="#AAA9A1" transform="translate(0,0)"/>
</svg>
